# xmcd
#
# Track frame offsets: 
#        150
#        21777
#        45972
#        66489
#        86390
#        103729
#        123009
#        142271
#        160572
#        181068
#        201508
#        220795
#
# Disc length: 3437 seconds
#
# Revision: 1
# Processed by: cddbd v1.5.2PL0 Copyright (c) Steve Scherf et al.
# Submitted via: ExactAudioCopy v0.99pb5
#
DISCID=a00d6b0c
DTITLE=Patti LaBelle - The Spirit's In It and I'm In Love Again and Patti 
DTITLE=[CD2]
DYEAR=2004
DGENRE=R&B
TTITLE0=Body Language
TTITLE1=I'll Never, Never Give Up
TTITLE2=Love Bankrupt
TTITLE3=When Am I Gonna Find True Love
TTITLE4=Love Symphony
TTITLE5=Living Double
TTITLE6=Where I Wanna Be
TTITLE7=Shy
TTITLE8=Look To The Rainbow
TTITLE9=I Can't Forget You
TTITLE10=What Can I Do For You
TTITLE11=If You Don't Know Me By Now
EXTD=
EXTT0=
EXTT1=
EXTT2=
EXTT3=
EXTT4=
EXTT5=
EXTT6=
EXTT7=
EXTT8=
EXTT9=
EXTT10=
EXTT11=
PLAYORDER=
